<!DOCTYPE svg PUBLIC "-//W3C//DTD SVG 1.1//EN" "http://www.w3.org/Graphics/SVG/1.1/DTD/svg11.dtd">
<!-- Uploaded to: SVG Repo, www.svgrepo.com, Transformed by: SVG Repo Mixer Tools -->
<svg fill="#2f62d1" width="800px" height="800px" viewBox="0 0 24 24" xmlns="http://www.w3.org/2000/svg" stroke="#2f62d1">
<g id="SVGRepo_bgCarrier" stroke-width="0"/>
<g id="SVGRepo_tracerCarrier" stroke-linecap="round" stroke-linejoin="round"/>
<g id="SVGRepo_iconCarrier">
<path d="M16,2l4,4H16ZM14,8h6V21a1,1,0,0,1-1,1H5a1,1,0,0,1-1-1V3A1,1,0,0,1,5,2h9ZM7,6A1,1,0,0,0,8,7h3a1,1,0,0,0,0-2H8A1,1,0,0,0,7,6ZM17,18a1,1,0,0,0-1-1H8a1,1,0,0,0,0,2h8A1,1,0,0,0,17,18ZM8,13a1,1,0,0,0,0,2h8a1,1,0,0,0,0-2Z"/>
</g>
</svg>