<!DOCTYPE svg PUBLIC "-//W3C//DTD SVG 1.1//EN" "http://www.w3.org/Graphics/SVG/1.1/DTD/svg11.dtd">
<!-- Uploaded to: SVG Repo, www.svgrepo.com, Transformed by: SVG Repo Mixer Tools -->
<svg height="800px" width="800px" version="1.1" id="Capa_1" xmlns="http://www.w3.org/2000/svg" xmlns:xlink="http://www.w3.org/1999/xlink" viewBox="0 0 178.988 178.988" xml:space="preserve" fill="#1e1e1e" stroke="#1e1e1e">
<g id="SVGRepo_bgCarrier" stroke-width="0"/>
<g id="SVGRepo_tracerCarrier" stroke-linecap="round" stroke-linejoin="round"/>
<g id="SVGRepo_iconCarrier"> <g> <g> <path style="fill:#010002;" d="M66.654,59.758c-3.926-0.68-6.749-2.363-8.312-5.167c-1.026-1.796-1.528-4.225-1.528-7.28h4.72 c0.143,2.434,0.537,4.213,1.146,5.334c1.122,2.011,3.174,3.139,6.188,3.389V41.487c-3.861-0.728-6.713-1.945-8.562-3.652 c-1.844-1.712-2.763-4.075-2.763-7.101c0-2.703,0.991-5.137,2.971-7.315c1.993-2.166,4.768-3.27,8.342-3.306V16.57h2.53v3.491 c3.544,0.251,6.259,1.289,8.151,3.127c1.891,1.838,2.882,4.26,2.977,7.28h-4.66c-0.119-1.349-0.489-2.512-1.098-3.491 c-1.122-1.796-2.9-2.739-5.358-2.828v12.996c4.123,1.158,6.928,2.244,8.401,3.252c2.411,1.671,3.604,4.147,3.604,7.417 c0,4.732-1.539,8.091-4.612,10.084c-1.259,0.817-3.091,1.36-5.185,1.766c6.14,0.209,12.25,1.199,18.145,2.977 c5.585-5.555,9.034-13.24,9.034-21.725c0-16.94-13.736-30.67-30.676-30.67c-16.934,0-30.664,13.73-30.664,30.67 c0,8.747,3.682,16.624,9.559,22.209C54.72,61.25,60.663,60.128,66.654,59.758z"/> <path style="fill:#010002;" d="M64.124,34.554c1.175,0.996,2.763,1.689,4.756,2.082V24.094c-2.357,0.095-4.028,0.8-5.018,2.13 c-0.996,1.337-1.498,2.733-1.498,4.195C62.364,32.179,62.96,33.557,64.124,34.554z"/> <path style="fill:#010002;" d="M78.611,49.119c0-2.226-0.817-3.914-2.446-5.072c-0.943-0.674-2.53-1.313-4.756-1.915v14.034 c3.043-0.143,5.137-1.253,6.307-3.335C78.313,51.762,78.611,50.521,78.611,49.119z"/> <path style="fill:#010002;" d="M175.269,121.455c3.747-3.896,4.093-11.146,3.473-20.83c-4.404-0.298-10.896,0.436-13.193,0 c-5.573-11.092-13.587-19.75-24.995-25.001c0.382-7.244,1.366-13.909,5.561-17.358c-10.191-0.698-18.802,6.188-24.303,12.501 c-4.929-5.126-12.238-9.201-20.824-12.071l-5.346,9.511c-15.896-5.478-33.355-5.424-49.161,0.167L39.504,59 c-0.018-0.03-0.048-0.054-0.072-0.078c-10.901,3.61-20.944,9.267-28.73,17.405C5.625,75.94,6.209,65.647,12.797,67.3 C2.074,59.997-3.833,80.015,6.538,82.575c-8.646,12.345-9.463,38.874,2.088,48.606c1.689,14.625,4.278,28.355,11.385,37.555 h23.342c-0.621-4.738-1.235-9.798-0.698-15.329c14.171,3.216,31.01,4.159,47.908,2.781c2.613,4.332,5.132,8.736,8.252,12.554 h23.098c-0.847-6.116-1.76-12.53-0.101-18.802C127.325,148.867,155.948,141.594,175.269,121.455z M143.382,90.469 c3.168,0,5.746,2.572,5.746,5.74s-2.578,5.74-5.746,5.74c-3.162,0-5.734-2.572-5.734-5.74S140.219,90.469,143.382,90.469z"/> </g> </g> </g>
</svg>